<svg width="30" height="30" viewBox="0 0 30 30" fill="none" xmlns="http://www.w3.org/2000/svg">
<path d="M8.75 8.75H7.5C6.83696 8.75 6.20107 9.01339 5.73223 9.48223C5.26339 9.95107 5 10.587 5 11.25V22.5C5 23.163 5.26339 23.7989 5.73223 24.2678C6.20107 24.7366 6.83696 25 7.5 25H18.75C19.413 25 20.0489 24.7366 20.5178 24.2678C20.9866 23.7989 21.25 23.163 21.25 22.5V21.25" stroke="black" stroke-width="2.5" stroke-linecap="round" stroke-linejoin="round"/>
<path d="M20 6.25L23.75 10M25.4813 8.23125C25.9736 7.73894 26.2501 7.07123 26.2501 6.375C26.2501 5.67877 25.9736 5.01106 25.4813 4.51875C24.9889 4.02644 24.3212 3.74987 23.625 3.74987C22.9288 3.74987 22.2611 4.02644 21.7688 4.51875L11.25 15V18.75H15L25.4813 8.23125Z" stroke="black" stroke-width="2.5" stroke-linecap="round" stroke-linejoin="round"/>
</svg>
