<svg width="230" height="230" viewBox="0 0 230 230" fill="none" xmlns="http://www.w3.org/2000/svg">
<path d="M8.33325 50.5166C8.33325 27.2208 26.9874 8.33331 49.9999 8.33331C73.0124 8.33331 91.6666 27.2208 91.6666 50.5166V72.3625C91.6666 75.7666 91.6666 78.1041 91.0708 80.1541C90.4984 82.1281 89.5175 83.9598 88.1917 85.5304C86.8659 87.1009 85.2249 88.3753 83.3749 89.2708C81.4666 90.1875 79.1916 90.55 75.8707 91.0791L75.3291 91.1625C74.3236 91.3361 73.3135 91.482 72.2999 91.6C71.4291 91.6833 70.5416 91.7125 69.6332 91.5333C68.1566 91.2349 66.782 90.5604 65.6425 89.5749C64.503 88.5895 63.6373 87.3265 63.1291 85.9083C62.8389 85.0492 62.6761 84.1521 62.6457 83.2458C62.5957 82.3958 62.5957 81.3625 62.5957 80.1541V62.7666C62.5957 60.9958 62.5957 59.4708 62.9999 58.1625C63.4487 56.7 64.2725 55.3804 65.3895 54.3351C66.5064 53.2898 67.8776 52.5551 69.3666 52.2041C70.6833 51.9 72.1874 52.0208 73.9332 52.1625L74.3207 52.1916L74.7791 52.2333C78.0416 52.4916 80.2791 52.6666 82.1749 53.3791C83.5082 53.8791 84.7416 54.5625 85.8541 55.4083V50.5166C85.8541 30.4708 69.7999 14.2208 49.9999 14.2208C30.1999 14.2208 14.1458 30.4708 14.1458 50.5166V55.4083C15.2583 54.5625 16.4916 53.875 17.8249 53.3791C19.7208 52.6708 21.9583 52.4916 25.2208 52.2291L25.6791 52.1916L26.0666 52.1625C27.8166 52.0208 29.3166 51.9 30.6333 52.2041C32.1222 52.5551 33.4934 53.2898 34.6104 54.3351C35.7273 55.3804 36.5512 56.7 36.9999 58.1625C37.4083 59.4708 37.4041 60.9958 37.4041 62.7666V80.15C37.4041 81.3625 37.4041 82.4 37.3541 83.2458C37.3041 84.1333 37.1874 85.025 36.8708 85.9041C36.3629 87.3218 35.4978 88.5844 34.3591 89.5699C33.2204 90.5553 31.8467 91.2301 30.3708 91.5291C29.489 91.6862 28.5887 91.7101 27.6999 91.6C26.8624 91.5166 25.8499 91.3541 24.6708 91.1666L24.1291 91.0833C20.8083 90.55 18.5291 90.1875 16.6249 89.2666C14.775 88.3711 13.1339 87.0967 11.8081 85.5262C10.4824 83.9556 9.50147 82.124 8.92908 80.15C8.43742 78.4625 8.34992 76.5791 8.33742 74.0625L8.33325 73.25V50.5166Z" fill="white"/>
<path d="M61.7917 176.542C64.9132 179.672 66.6661 183.913 66.6661 188.333C66.6661 192.754 64.9132 196.995 61.7917 200.125C58.6613 203.246 54.4209 204.999 50.0001 204.999C45.5793 204.999 41.3389 203.246 38.2084 200.125L61.7917 176.542ZM25.0001 138.333H75.0001C77.2102 138.333 79.3298 139.211 80.8926 140.774C82.4554 142.337 83.3334 144.457 83.3334 146.667V213.333C83.3334 215.543 82.4554 217.663 80.8926 219.226C79.3298 220.789 77.2102 221.667 75.0001 221.667H25.0001C22.7899 221.667 20.6703 220.789 19.1075 219.226C17.5447 217.663 16.6667 215.543 16.6667 213.333V146.667C16.6667 144.457 17.5447 142.337 19.1075 140.774C20.6703 139.211 22.7899 138.333 25.0001 138.333ZM29.1667 146.667C28.0617 146.667 27.0019 147.106 26.2205 147.887C25.4391 148.668 25.0001 149.728 25.0001 150.833C25.0001 151.938 25.4391 152.998 26.2205 153.78C27.0019 154.561 28.0617 155 29.1667 155C30.2718 155 31.3316 154.561 32.113 153.78C32.8944 152.998 33.3334 151.938 33.3334 150.833C33.3334 149.728 32.8944 148.668 32.113 147.887C31.3316 147.106 30.2718 146.667 29.1667 146.667ZM41.6667 146.667C40.5617 146.667 39.5019 147.106 38.7205 147.887C37.9391 148.668 37.5001 149.728 37.5001 150.833C37.5001 151.938 37.9391 152.998 38.7205 153.78C39.5019 154.561 40.5617 155 41.6667 155C42.7718 155 43.8316 154.561 44.613 153.78C45.3944 152.998 45.8334 151.938 45.8334 150.833C45.8334 149.728 45.3944 148.668 44.613 147.887C43.8316 147.106 42.7718 146.667 41.6667 146.667ZM50.0001 163.333C43.3697 163.333 37.0108 165.967 32.3224 170.656C27.634 175.344 25.0001 181.703 25.0001 188.333C25.0001 194.964 27.634 201.323 32.3224 206.011C37.0108 210.699 43.3697 213.333 50.0001 213.333C56.6305 213.333 62.9893 210.699 67.6778 206.011C72.3662 201.323 75.0001 194.964 75.0001 188.333C75.0001 181.703 72.3662 175.344 67.6778 170.656C62.9893 165.967 56.6305 163.333 50.0001 163.333Z" fill="white"/>
<path fill-rule="evenodd" clip-rule="evenodd" d="M174.446 155.558L172.354 154.079C169.369 151.967 165.803 150.833 162.146 150.833H159.596C157.909 150.833 156.209 150.937 154.621 151.5C144.692 155.025 137.863 167.896 138.359 197.096C138.459 202.979 139.834 209.479 145.142 212.017C146.953 212.887 148.937 213.337 150.946 213.333C153.204 213.37 155.423 212.737 157.321 211.512C159.029 210.396 160.529 208.946 162.029 207.496C163.879 205.704 165.729 203.912 167.963 202.754C170.396 201.492 173.097 200.834 175.838 200.833H184.167C186.909 200.833 189.609 201.492 192.042 202.75C194.275 203.912 196.125 205.704 197.979 207.496C199.479 208.946 200.979 210.396 202.679 211.512C204.304 212.579 206.409 213.333 209.059 213.333C211.068 213.337 213.052 212.887 214.863 212.017C220.171 209.479 221.546 202.975 221.646 197.096C222.142 167.896 215.313 155.025 205.384 151.504C203.792 150.937 202.084 150.833 200.404 150.833H197.854C194.197 150.834 190.63 151.969 187.646 154.083L185.554 155.558C183.93 156.707 181.99 157.324 180 157.324C178.011 157.324 176.07 156.707 174.446 155.558ZM199.792 167.5C200.621 167.5 201.416 167.829 202.002 168.415C202.588 169.001 202.917 169.796 202.917 170.625C202.917 171.454 202.588 172.249 202.002 172.835C201.416 173.421 200.621 173.75 199.792 173.75C198.963 173.75 198.168 173.421 197.582 172.835C196.996 172.249 196.667 171.454 196.667 170.625C196.667 169.796 196.996 169.001 197.582 168.415C198.168 167.829 198.963 167.5 199.792 167.5ZM161.25 168.542C162.079 168.542 162.874 168.871 163.46 169.457C164.046 170.043 164.375 170.838 164.375 171.667V174.792H167.5C168.329 174.792 169.124 175.121 169.71 175.707C170.296 176.293 170.625 177.088 170.625 177.917C170.625 178.745 170.296 179.54 169.71 180.126C169.124 180.712 168.329 181.042 167.5 181.042H164.375V184.167C164.375 184.995 164.046 185.79 163.46 186.376C162.874 186.962 162.079 187.292 161.25 187.292C160.421 187.292 159.627 186.962 159.041 186.376C158.454 185.79 158.125 184.995 158.125 184.167V181.042H155C154.171 181.042 153.377 180.712 152.791 180.126C152.204 179.54 151.875 178.745 151.875 177.917C151.875 177.088 152.204 176.293 152.791 175.707C153.377 175.121 154.171 174.792 155 174.792H158.125V171.667C158.125 170.838 158.454 170.043 159.041 169.457C159.627 168.871 160.421 168.542 161.25 168.542ZM209.167 176.875C209.167 177.704 208.838 178.499 208.252 179.085C207.666 179.671 206.871 180 206.042 180C205.213 180 204.418 179.671 203.832 179.085C203.246 178.499 202.917 177.704 202.917 176.875C202.917 176.046 203.246 175.251 203.832 174.665C204.418 174.079 205.213 173.75 206.042 173.75C206.871 173.75 207.666 174.079 208.252 174.665C208.838 175.251 209.167 176.046 209.167 176.875ZM193.542 180C194.371 180 195.166 179.671 195.752 179.085C196.338 178.499 196.667 177.704 196.667 176.875C196.667 176.046 196.338 175.251 195.752 174.665C195.166 174.079 194.371 173.75 193.542 173.75C192.713 173.75 191.918 174.079 191.332 174.665C190.746 175.251 190.417 176.046 190.417 176.875C190.417 177.704 190.746 178.499 191.332 179.085C191.918 179.671 192.713 180 193.542 180ZM202.917 183.125C202.917 182.296 202.588 181.501 202.002 180.915C201.416 180.329 200.621 180 199.792 180C198.963 180 198.168 180.329 197.582 180.915C196.996 181.501 196.667 182.296 196.667 183.125C196.667 183.954 196.996 184.749 197.582 185.335C198.168 185.921 198.963 186.25 199.792 186.25C200.621 186.25 201.416 185.921 202.002 185.335C202.588 184.749 202.917 183.954 202.917 183.125Z" fill="white"/>
<path d="M159.167 8.33331H200.833C203.043 8.33331 205.163 9.21129 206.726 10.7741C208.289 12.3369 209.167 14.4565 209.167 16.6666V37.5H150.833V16.6666C150.833 14.4565 151.711 12.3369 153.274 10.7741C154.837 9.21129 156.956 8.33331 159.167 8.33331ZM209.167 79.1666C209.167 81.3768 208.289 83.4964 206.726 85.0592C205.163 86.622 203.043 87.5 200.833 87.5V91.6666H192.5V87.5H167.5V91.6666H159.167V87.5C156.956 87.5 154.837 86.622 153.274 85.0592C151.711 83.4964 150.833 81.3768 150.833 79.1666V41.6666H209.167V79.1666ZM163.333 20.8333V29.1666H171.667V20.8333H163.333ZM163.333 50V62.5H171.667V50H163.333Z" fill="white"/>
</svg>
