<svg width="50" height="50" viewBox="0 0 50 50" fill="none" xmlns="http://www.w3.org/2000/svg">
<path d="M35.4167 4.16669H14.5834C8.83045 4.16669 4.16675 8.83039 4.16675 14.5834V35.4167C4.16675 41.1697 8.83045 45.8334 14.5834 45.8334H35.4167C41.1697 45.8334 45.8334 41.1697 45.8334 35.4167V14.5834C45.8334 8.83039 41.1697 4.16669 35.4167 4.16669Z" stroke="white" stroke-width="4.16667" stroke-linecap="round" stroke-linejoin="round"/>
<path d="M33.3331 23.6875C33.5902 25.4214 33.2941 27.1921 32.4868 28.748C31.6795 30.3038 30.4022 31.5655 28.8365 32.3535C27.2709 33.1415 25.4966 33.4158 23.766 33.1374C22.0355 32.8589 20.4368 32.0419 19.1974 30.8024C17.958 29.563 17.1409 27.9643 16.8624 26.2338C16.584 24.5033 16.8583 22.729 17.6463 21.1633C18.4344 19.5976 19.696 18.3203 21.2518 17.513C22.8077 16.7057 24.5785 16.4096 26.3123 16.6667C28.0809 16.9289 29.7182 17.7531 30.9825 19.0173C32.2467 20.2816 33.0709 21.9189 33.3331 23.6875Z" stroke="white" stroke-width="4.16667" stroke-linecap="round" stroke-linejoin="round"/>
<path d="M36.4583 13.5417H36.4791" stroke="white" stroke-width="4.16667" stroke-linecap="round" stroke-linejoin="round"/>
</svg>
