<svg width="40" height="40" viewBox="0 0 40 40" fill="none" xmlns="http://www.w3.org/2000/svg">
<path d="M28.3334 35V31.6667C28.3334 29.8986 27.631 28.2029 26.3808 26.9526C25.1306 25.7024 23.4349 25 21.6667 25H8.33341C6.5653 25 4.86961 25.7024 3.61937 26.9526C2.36913 28.2029 1.66675 29.8986 1.66675 31.6667V35" stroke="white" stroke-width="3.33333" stroke-linecap="round" stroke-linejoin="round"/>
<path d="M14.9999 18.3333C18.6818 18.3333 21.6666 15.3486 21.6666 11.6667C21.6666 7.98477 18.6818 5 14.9999 5C11.318 5 8.33325 7.98477 8.33325 11.6667C8.33325 15.3486 11.318 18.3333 14.9999 18.3333Z" stroke="white" stroke-width="3.33333" stroke-linecap="round" stroke-linejoin="round"/>
<path d="M38.3333 35V31.6667C38.3322 30.1896 37.8405 28.7546 36.9355 27.5872C36.0305 26.4198 34.7635 25.586 33.3333 25.2167" stroke="white" stroke-width="3.33333" stroke-linecap="round" stroke-linejoin="round"/>
<path d="M26.6667 5.21667C28.1008 5.58384 29.3718 6.41784 30.2795 7.58719C31.1871 8.75654 31.6798 10.1947 31.6798 11.675C31.6798 13.1553 31.1871 14.5935 30.2795 15.7628C29.3718 16.9322 28.1008 17.7662 26.6667 18.1333" stroke="white" stroke-width="3.33333" stroke-linecap="round" stroke-linejoin="round"/>
</svg>
