<svg width="680" height="662" viewBox="0 0 680 662" fill="none" xmlns="http://www.w3.org/2000/svg">
<g clip-path="url(#clip0_59_28)">
<path d="M679.771 0.331055H-0.227173V662.331H679.771V0.331055Z" fill="#D9D9D9"/>
<path fill-rule="evenodd" clip-rule="evenodd" d="M330.12 456.949C309.892 457.566 287.44 455.735 264.988 453.008C246.534 450.769 229.212 445.382 212.787 437.247C205.935 433.854 199.198 430.034 194.034 424.06C187.377 416.357 186.64 407.879 189.927 398.862C193.27 389.682 199.972 382.938 208.117 377.691C221.31 369.191 235.778 363.695 251.547 361.753C253.537 361.508 254.569 360.742 255.43 358.979C271.236 326.595 297.369 306.988 333.53 300.772C345.902 298.645 358.391 300.615 370.391 304.795C398.598 314.621 419.047 332.679 431.622 359.135C432.513 361.008 433.628 361.746 435.675 362.064C451.751 364.537 466.575 370.192 479.627 379.69C483.608 382.587 487.333 386.176 490.175 390.132C500.745 404.842 498.872 416.124 486.578 427.549C481.354 432.402 475.276 435.924 468.675 438.677C456.717 443.663 444.381 447.582 431.566 449.652C421.873 451.222 412.038 452.028 402.238 452.873C385.096 454.354 367.94 455.725 350.771 456.883C344.719 457.291 338.609 456.949 330.12 456.949ZM338.747 453.616C345.469 453.616 352.224 454.025 358.908 453.534C375.51 452.313 392.115 450.972 408.651 449.117C420.316 447.81 431.875 445.572 443.486 443.784C445.397 443.49 446.156 442.691 445.925 440.676C444.664 429.687 443.877 418.637 442.249 407.702C440.526 396.128 437.467 384.807 433.288 373.805C432.787 372.489 432.203 371.864 430.532 371.978C407.453 373.552 384.369 375.026 361.289 376.575C360.235 376.649 359.147 377.099 358.198 377.595C355.243 379.138 352.509 381.219 349.402 382.316C339.317 385.874 329.767 384.552 320.805 378.714C319.327 377.75 317.292 377.141 315.51 377.139C295.332 377.084 275.146 377.415 255.042 375.24C253.515 375.076 252.949 375.652 252.507 376.981C245.488 397.948 241.665 419.433 241.48 441.5C241.438 446.392 241.382 445.46 245.407 446.401C261.646 450.204 278.226 451.946 294.821 453.07C309.42 454.063 338.743 453.875 338.747 453.616ZM236.709 443.954C237.41 416.344 242.027 390.091 252.522 364.804C251.736 364.804 251.185 364.739 250.655 364.814C236.488 366.801 223.403 371.758 211.362 379.131C203.185 384.14 196.35 390.618 192.843 399.697C189.543 408.247 190.801 416.048 197.405 422.811C203.577 429.134 211.188 433.43 219.175 437.062C224.8 439.62 230.693 441.614 236.709 443.954ZM434.396 364.829C444.966 389.623 448.996 415.189 450.413 441.526C451.738 441.19 452.747 441.02 453.691 440.681C458.261 439.041 462.838 437.403 467.375 435.674C475.924 432.414 482.872 427.043 488.617 420.146C494.588 412.982 495.338 405.287 491.08 397.048C488.067 391.218 483.742 386.472 478.504 382.522C467.357 374.121 454.565 369.177 440.987 365.981C439.003 365.515 436.961 365.273 434.396 364.829ZM406.255 331.714C406.01 331.156 405.98 330.987 405.881 330.882C405.555 330.538 405.213 330.211 404.864 329.89C394.686 320.588 382.994 313.769 369.857 309.133C357.949 304.928 345.694 303.177 333.271 305.149C311.753 308.563 293.442 318.307 278.253 333.557C277.557 334.254 276.914 335.005 275.998 336.001C276.759 336.132 277.126 336.255 277.49 336.251C288.374 336.161 299.26 336.096 310.14 335.888C311.025 335.87 312.034 334.985 312.736 334.269C314.607 332.37 316.099 330.048 318.175 328.417C325.119 322.959 333.229 321.079 342.028 321.87C350.505 322.631 357.734 325.809 363.268 332.324C363.907 333.075 365.218 333.7 366.209 333.685C371.888 333.596 377.567 333.347 383.24 333.053C390.818 332.662 398.387 332.177 406.255 331.714ZM430.927 369.38C430.927 368.5 430.996 368.249 430.917 368.06C426.031 356.102 419.663 345.009 410.566 335.562C409.927 334.898 408.615 334.494 407.646 334.542C394.55 335.189 381.455 335.937 368.363 336.671C367.77 336.705 367.185 336.843 366.306 336.975C373.151 349.778 371.098 361.776 363.123 373.951C386.198 372.396 408.575 370.889 430.927 369.38ZM338.663 324.899C319.623 324.207 309.736 338.978 310.023 352.792C310.386 370.204 321.814 380.725 338.594 380.782C355.337 380.838 366.878 370.39 367.356 352.977C367.734 339.264 357.942 324.175 338.663 324.899ZM254.404 372.081C274.549 374.455 294.395 374.321 314.489 374.097C306.813 363.012 304.296 351.575 309.918 339.235C309.423 339.098 309.271 339.018 309.121 339.021C297.599 339.062 286.079 339.086 274.559 339.219C273.689 339.229 272.566 339.846 272.014 340.529C270.135 342.85 268.415 345.297 266.714 347.746C261.527 355.213 257.88 363.41 254.404 372.081Z" fill="black"/>
<path fill-rule="evenodd" clip-rule="evenodd" d="M447.028 166.658C447.411 177.89 446.274 188.98 441.795 199.426C432.305 221.569 415.702 236.165 391.995 242.957C383.27 245.456 374.362 246.857 365.242 246.655C363.724 246.621 362.902 247.164 362.207 248.36C356.14 258.798 350.069 269.234 343.913 279.625C343.295 280.665 342.014 282.156 341.201 282.066C340.118 281.947 338.892 280.652 338.246 279.568C331.998 269.051 325.887 258.455 319.623 247.949C319.207 247.25 317.846 246.726 316.928 246.729C304.424 246.794 292.269 244.704 280.919 239.729C255.563 228.614 240.075 209.724 235.971 182.721C234.004 169.788 233.826 156.762 237.652 144.005C243.152 125.657 253.655 110.432 267.834 97.3087C281.645 84.5294 298.467 78.3569 316.703 75.1833C324.637 73.8037 332.727 72.5393 340.745 72.5499C348.998 72.5618 357.28 73.9758 365.493 75.1542C378.628 77.0409 391.113 81.2366 402.276 88.1214C415.216 96.1012 425.313 107.064 433.397 119.777C440.618 131.138 445.626 143.251 446.982 156.619C447.318 159.935 447.028 163.311 447.028 166.658ZM341.103 275.301C343.676 270.795 346.022 266.544 348.507 262.366C352.037 256.436 355.803 250.632 359.18 244.62C360.229 242.753 361.262 241.907 363.397 242.07C371.542 242.693 379.513 241.631 387.416 239.727C410.074 234.271 426.606 221.318 436.417 200.794C443.511 185.953 444.146 170.012 442.173 154.026C440.573 141.075 434.914 129.547 427.5 118.818C418.503 105.801 407.415 94.8844 392.69 88.1188C370.282 77.822 346.72 74.6881 322.24 78.4854C304.955 81.1651 288.641 86.1195 274.802 97.2425C259.636 109.43 248.909 124.518 242.659 142.609C238.456 154.769 238.598 167.294 239.996 179.86C241.186 190.557 244.353 200.669 250.576 209.612C265.662 231.295 287.198 241.36 313.695 242.213C315.929 242.285 318.175 242.275 320.389 242.509C321.131 242.59 322.081 243.149 322.459 243.766C326.045 249.573 329.561 255.421 333.027 261.295C335.727 265.864 338.331 270.485 341.103 275.301Z" fill="black"/>
<path fill-rule="evenodd" clip-rule="evenodd" d="M294.819 453.071C278.225 451.946 261.645 450.205 245.405 446.402C241.382 445.461 241.437 446.393 241.479 441.501C241.665 419.433 245.487 397.948 252.506 376.982C252.949 375.653 253.515 375.077 255.041 375.241C275.144 377.417 295.329 377.086 315.509 377.14C317.291 377.144 319.325 377.752 320.804 378.716C329.766 384.553 339.316 385.874 349.4 382.317C352.508 381.221 355.241 379.139 358.197 377.597C359.146 377.102 360.234 376.65 361.288 376.576C384.367 375.027 407.452 373.555 430.531 371.979C432.202 371.865 432.786 372.49 433.286 373.806C437.466 384.809 440.524 396.129 442.247 407.703C443.875 418.638 444.663 429.688 445.924 440.677C446.155 442.693 445.396 443.491 443.485 443.785C431.873 445.575 420.315 447.811 408.65 449.118C392.114 450.972 375.508 452.314 358.907 453.535C352.224 454.026 309.42 454.063 294.819 453.071ZM397.437 443.72C402.835 443.948 406.273 441.087 408.993 437.006C412.075 432.383 410.872 427.208 406.326 423.913C400.184 419.464 390.959 420.943 385.911 424.725C381.43 428.077 380.717 434.073 384.515 437.89C388 441.391 392.38 443.385 397.437 443.72ZM285.786 446.012C289.759 446.229 293.064 444.475 296.269 442.543C299.419 440.644 301.81 438.064 301.477 434.234C301.131 430.272 298.996 427.341 295.18 425.522C291.523 423.777 287.698 423.173 283.768 423.66C278.603 424.298 272.587 428.444 272.88 434.46C273.161 440.274 279.397 445.962 285.786 446.012ZM298.554 400.208C298.26 398.438 298.21 396.443 297.576 394.643C296.075 390.375 290.856 389.369 287.746 392.733C286.716 393.846 285.638 395.368 285.548 396.759C285.352 399.746 285.449 402.834 286.057 405.757C286.697 408.837 288.811 410.114 291.751 410.097C294.792 410.079 296.904 408.654 297.749 405.685C298.233 403.989 298.279 402.173 298.554 400.208ZM403.298 400.305C403.005 398.542 402.956 396.466 402.292 394.598C400.815 390.44 395.712 389.396 392.62 392.608C391.519 393.75 390.393 395.354 390.289 396.817C390.071 399.796 390.2 402.891 390.822 405.807C391.477 408.882 393.596 410.135 396.553 410.098C399.583 410.063 401.666 408.618 402.512 405.636C402.972 404.011 403.024 402.274 403.298 400.305Z" fill="#F9E280"/>
<path fill-rule="evenodd" clip-rule="evenodd" d="M236.709 443.954C230.693 441.614 224.801 439.621 219.176 437.062C211.189 433.43 203.578 429.135 197.407 422.811C190.801 416.048 189.543 408.247 192.844 399.697C196.351 390.618 203.185 384.14 211.363 379.131C223.404 371.758 236.489 366.801 250.656 364.814C251.187 364.739 251.737 364.804 252.523 364.804C242.027 390.091 237.408 416.342 236.709 443.954Z" fill="#323232"/>
<path fill-rule="evenodd" clip-rule="evenodd" d="M434.396 364.829C436.961 365.273 439.003 365.515 440.987 365.981C454.565 369.177 467.357 374.121 478.504 382.522C483.744 386.47 488.067 391.217 491.08 397.048C495.339 405.288 494.588 412.982 488.617 420.146C482.871 427.043 475.924 432.414 467.375 435.674C462.838 437.405 458.263 439.041 453.691 440.681C452.747 441.02 451.738 441.19 450.413 441.526C448.997 415.189 444.968 389.621 434.396 364.829Z" fill="#323232"/>
<path fill-rule="evenodd" clip-rule="evenodd" d="M406.255 331.714C398.388 332.177 390.818 332.662 383.241 333.055C377.567 333.35 371.888 333.598 366.21 333.686C365.22 333.701 363.909 333.076 363.27 332.325C357.736 325.809 350.506 322.632 342.029 321.871C333.23 321.081 325.12 322.961 318.176 328.418C316.099 330.048 314.607 332.37 312.737 334.27C312.036 334.987 311.027 335.871 310.141 335.889C299.261 336.097 288.376 336.162 277.492 336.252C277.127 336.256 276.76 336.132 276 336.002C276.915 335.006 277.558 334.257 278.255 333.558C293.443 318.308 311.754 308.565 333.272 305.15C345.696 303.179 357.951 304.929 369.859 309.134C382.995 313.771 394.687 320.588 404.865 329.892C405.215 330.212 405.556 330.539 405.882 330.883C405.98 330.987 406.01 331.156 406.255 331.714Z" fill="#F9E280"/>
<path fill-rule="evenodd" clip-rule="evenodd" d="M430.927 369.38C408.574 370.889 386.196 372.395 363.124 373.951C371.099 361.778 373.153 349.778 366.308 336.975C367.186 336.843 367.771 336.706 368.364 336.671C381.457 335.936 394.551 335.189 407.648 334.542C408.617 334.494 409.93 334.898 410.568 335.562C419.665 345.009 426.032 356.102 430.919 368.06C430.996 368.251 430.927 368.5 430.927 369.38Z" fill="#6C6C6C"/>
<path fill-rule="evenodd" clip-rule="evenodd" d="M338.663 324.899C357.944 324.175 367.734 339.266 367.358 352.977C366.878 370.39 355.337 380.838 338.595 380.782C321.815 380.725 310.387 370.205 310.024 352.792C309.735 338.977 319.622 324.205 338.663 324.899ZM338.875 367.027C346.854 367.064 353.597 360.683 353.709 353.133C353.838 344.367 346.661 339.08 339.525 338.534C329.897 337.792 324.115 346.103 324.227 354.321C324.315 360.848 331.311 366.993 338.875 367.027Z" fill="#959595"/>
<path fill-rule="evenodd" clip-rule="evenodd" d="M254.404 372.081C257.88 363.41 261.527 355.213 266.714 347.747C268.415 345.296 270.135 342.851 272.014 340.53C272.566 339.846 273.689 339.23 274.56 339.221C286.079 339.086 297.599 339.063 309.121 339.022C309.271 339.019 309.424 339.1 309.918 339.237C304.296 351.576 306.813 363.013 314.489 374.099C294.395 374.323 274.549 374.455 254.404 372.081Z" fill="#6C6C6C"/>
<path fill-rule="evenodd" clip-rule="evenodd" d="M341.103 275.301C338.331 270.485 335.727 265.866 333.027 261.295C329.559 255.422 326.044 249.573 322.459 243.766C322.079 243.149 321.131 242.589 320.389 242.509C318.175 242.275 315.929 242.285 313.695 242.213C287.198 241.359 265.662 231.295 250.576 209.612C244.353 200.669 241.188 190.555 239.996 179.86C238.598 167.294 238.456 154.768 242.659 142.609C248.91 124.518 259.636 109.43 274.802 97.2425C288.642 86.1209 304.956 81.1665 322.24 78.4854C346.721 74.6894 370.283 77.822 392.691 88.1188C407.415 94.8844 418.502 105.801 427.5 118.818C434.914 129.547 440.573 141.076 442.173 154.026C444.146 170.012 443.511 185.953 436.417 200.794C426.606 221.318 410.074 234.271 387.416 239.727C379.512 241.631 371.543 242.693 363.397 242.07C361.264 241.905 360.229 242.753 359.18 244.62C355.805 250.632 352.037 256.435 348.507 262.366C346.023 266.542 343.676 270.795 341.103 275.301Z" fill="white"/>
<path fill-rule="evenodd" clip-rule="evenodd" d="M342.886 440.051C335.388 439.535 330.084 439.25 324.296 438.591C323.132 438.46 321.878 438.146 320.914 437.537C320.177 437.072 319.271 435.914 319.403 435.241C320.825 427.872 322.455 420.501 328.293 415.002C341.414 402.65 356.861 410.178 362.186 421.095C364.148 425.123 365.197 429.6 366.43 433.932C367.097 436.267 366.316 437.3 363.838 437.656C356.502 438.713 350.382 439.471 342.886 440.051ZM324.862 431.882C329.26 425.702 335.12 423.219 342.156 423.092C349.092 422.966 355.489 424.323 360.703 429.423C359.667 426.419 358.69 423.431 357.048 420.837C353.363 415.014 344.789 411.936 338.598 413.876C331.458 416.112 325.483 423.681 324.862 431.882ZM326.422 434.541C338.058 436.4 349.259 436.136 360.638 433.832C355.53 426.652 348.311 425.07 340.403 425.708C334.406 426.19 329.467 428.785 326.422 434.541Z" fill="black"/>
<path fill-rule="evenodd" clip-rule="evenodd" d="M397.437 443.72C392.379 443.385 387.998 441.391 384.515 437.892C380.717 434.075 381.431 428.078 385.911 424.726C390.959 420.943 400.184 419.464 406.326 423.914C410.872 427.208 412.075 432.383 408.993 437.007C406.273 441.087 402.835 443.948 397.437 443.72Z" fill="#FF958F"/>
<path fill-rule="evenodd" clip-rule="evenodd" d="M285.786 446.012C279.397 445.962 273.161 440.274 272.879 434.459C272.586 428.442 278.601 424.297 283.767 423.659C287.697 423.172 291.521 423.775 295.178 425.52C298.995 427.34 301.13 430.271 301.475 434.232C301.81 438.064 299.419 440.644 296.268 442.542C293.064 444.475 289.76 446.229 285.786 446.012Z" fill="#FF958F"/>
<path fill-rule="evenodd" clip-rule="evenodd" d="M298.554 400.208C298.279 402.172 298.233 403.988 297.749 405.685C296.903 408.654 294.792 410.079 291.751 410.097C288.812 410.114 286.699 408.837 286.057 405.757C285.449 402.834 285.352 399.746 285.548 396.759C285.638 395.368 286.715 393.846 287.746 392.733C290.856 389.369 296.075 390.376 297.576 394.643C298.209 396.444 298.26 398.438 298.554 400.208Z" fill="black"/>
<path fill-rule="evenodd" clip-rule="evenodd" d="M403.298 400.305C403.024 402.274 402.972 404.011 402.511 405.635C401.665 408.617 399.583 410.061 396.552 410.097C393.595 410.133 391.477 408.88 390.82 405.806C390.2 402.889 390.07 399.795 390.287 396.816C390.392 395.354 391.518 393.75 392.618 392.607C395.711 389.395 400.814 390.438 402.291 394.597C402.956 396.465 403.005 398.543 403.298 400.305Z" fill="black"/>
<path fill-rule="evenodd" clip-rule="evenodd" d="M338.875 367.027C331.311 366.993 324.315 360.848 324.228 354.32C324.117 346.102 329.898 337.792 339.527 338.532C346.663 339.079 353.838 344.366 353.71 353.132C353.597 360.683 346.854 367.064 338.875 367.027ZM338.845 364.046C345.12 364.07 350.579 359.032 350.626 353.166C350.679 346.541 345.429 341.554 338.339 341.493C332.017 341.436 327.363 346.732 327.304 354.047C327.266 359.111 332.929 364.021 338.845 364.046Z" fill="black"/>
<path fill-rule="evenodd" clip-rule="evenodd" d="M324.862 431.882C325.483 423.681 331.458 416.112 338.598 413.876C344.79 411.936 353.363 415.013 357.048 420.837C358.689 423.431 359.667 426.421 360.703 429.423C355.489 424.322 349.093 422.966 342.156 423.092C335.12 423.219 329.259 425.702 324.862 431.882Z" fill="#CC4E4E"/>
<path fill-rule="evenodd" clip-rule="evenodd" d="M326.422 434.541C329.467 428.785 334.406 426.189 340.403 425.708C348.31 425.07 355.53 426.652 360.638 433.832C349.259 436.136 338.057 436.4 326.422 434.541Z" fill="#E2807D"/>
<path fill-rule="evenodd" clip-rule="evenodd" d="M338.845 364.046C332.929 364.021 327.265 359.111 327.304 354.046C327.363 346.73 332.015 341.434 338.339 341.491C345.429 341.552 350.679 346.541 350.626 353.165C350.579 359.032 345.122 364.071 338.845 364.046Z" fill="#FFF9D5"/>
<path fill-rule="evenodd" clip-rule="evenodd" d="M245.598 435.303C254.83 425.475 263.344 429.326 265.945 438.737C267.176 437.757 268.362 436.732 269.634 435.822C277.05 430.487 284.919 435.757 285.359 443.283C285.593 447.301 284.75 451.434 284.001 455.445C282.692 462.465 281.218 469.47 279.51 476.41C278.932 478.758 277.698 481.073 276.285 483.083C272.468 488.527 265.343 488.784 260.936 483.693C259.556 482.101 258.62 480.15 257.33 478.126C254.88 481.702 251.736 484.395 246.55 482.822C241.949 481.429 239.406 478.27 237.86 473.795C237.282 474.572 236.864 475.124 236.455 475.683C232.45 481.156 225.519 481.383 220.864 476.333C217.752 472.959 217.038 468.925 217.77 464.814C219.259 456.461 221.073 448.161 223.026 439.896C223.697 437.062 224.892 434.249 226.36 431.706C228.023 428.832 230.918 427.067 234.244 426.483C239.015 425.649 243.062 428.307 244.864 433.087C245.13 433.793 245.34 434.521 245.598 435.303ZM241.581 437.848C241.552 437.214 241.604 436.561 241.479 435.942C240.656 431.881 237.154 428.22 232.113 431.496C229.889 432.94 228.623 434.926 227.981 437.259C226.103 444.083 224.166 450.905 222.697 457.818C221.913 461.516 221.839 465.398 221.831 469.2C221.824 472.223 223.754 474.335 226.56 475.508C229.492 476.734 231.399 476.394 232.873 473.678C234.615 470.464 236.112 467.014 237.004 463.499C238.408 457.952 239.219 452.264 240.282 446.633C240.83 443.725 241.698 437.872 241.581 437.848ZM261.778 441.08C261.747 440.443 261.805 439.79 261.676 439.173C260.832 435.179 257.353 431.406 252.298 434.725C250.289 436.046 248.956 437.779 248.379 439.883C246.365 447.252 244.377 454.638 242.759 462.095C242.031 465.44 242.032 468.973 242.019 472.423C242.009 475.492 244.55 478.235 247.569 479.026C249.756 479.6 251.841 479.362 252.835 477.256C254.546 473.625 256.325 469.944 257.342 466.102C258.745 460.778 259.474 455.283 260.492 449.862C261.036 446.955 261.892 441.1 261.778 441.08ZM261.625 473.462C261.852 479.446 263.995 482.37 267.637 483.21C269.711 483.685 271.591 483.355 272.53 481.466C274.123 478.251 275.835 474.994 276.722 471.564C278.24 465.685 279.245 459.67 280.299 453.686C280.873 450.437 281.478 447.119 281.414 443.844C281.306 438.265 276.469 435.867 271.916 439.105C270.277 440.274 268.747 442.212 268.193 444.088C266.072 451.277 264.255 458.558 262.562 465.857C261.877 468.801 261.807 471.879 261.625 473.462Z" fill="black"/>
<path fill-rule="evenodd" clip-rule="evenodd" d="M240.282 446.632C239.219 452.262 238.408 457.95 237.004 463.498C236.112 467.012 234.616 470.462 232.873 473.677C231.397 476.392 229.492 476.733 226.56 475.507C223.754 474.334 221.824 472.223 221.831 469.199C221.838 465.397 221.913 461.515 222.697 457.817C224.166 450.903 226.103 444.082 227.981 437.258C228.623 434.925 229.889 432.939 232.113 431.494C237.154 428.219 240.657 431.88 241.479 435.94C241.604 436.561 241.552 437.213 241.581 437.847C241.698 437.872 240.83 443.725 240.282 446.632Z" fill="#F9E280"/>
<path fill-rule="evenodd" clip-rule="evenodd" d="M260.489 449.862C259.472 455.283 258.743 460.777 257.339 466.102C256.323 469.943 254.543 473.625 252.832 477.256C251.839 479.362 249.753 479.6 247.566 479.026C244.547 478.234 242.008 475.492 242.016 472.423C242.03 468.974 242.028 465.44 242.756 462.095C244.374 454.636 246.363 447.253 248.377 439.883C248.953 437.779 250.286 436.048 252.295 434.725C257.351 431.406 260.829 435.18 261.673 439.173C261.803 439.79 261.746 440.442 261.775 441.08C261.892 441.1 261.036 446.955 260.489 449.862Z" fill="#F9E280"/>
<path fill-rule="evenodd" clip-rule="evenodd" d="M261.625 473.462C261.807 471.88 261.877 468.801 262.562 465.859C264.255 458.558 266.072 451.277 268.193 444.089C268.747 442.213 270.277 440.275 271.916 439.106C276.469 435.869 281.306 438.266 281.414 443.846C281.478 447.12 280.873 450.438 280.299 453.687C279.245 459.672 278.24 465.687 276.722 471.565C275.835 474.996 274.123 478.253 272.53 481.467C271.592 483.358 269.711 483.688 267.637 483.211C263.995 482.37 261.853 479.444 261.625 473.462Z" fill="#F9E280"/>
<path fill-rule="evenodd" clip-rule="evenodd" d="M228.242 464.274C226.543 464.118 225.617 464.608 225.73 466.49C225.901 469.33 227.195 471.258 229.085 471.139C230.338 471.059 232.731 467.948 232.408 466.146C232.017 463.943 229.817 464.516 228.242 464.274Z" fill="#F2C370"/>
<path fill-rule="evenodd" clip-rule="evenodd" d="M248.537 467.666C246.87 467.482 245.884 467.899 245.99 469.809C246.149 472.635 247.436 474.58 249.317 474.49C250.585 474.426 253.372 470.7 252.629 469.376C252.011 468.271 248.628 467.482 248.537 467.666Z" fill="#F2C370"/>
<path fill-rule="evenodd" clip-rule="evenodd" d="M265.381 474.315C265.167 472.583 265.834 471.72 267.683 471.874C268.472 471.94 269.285 471.887 270.048 472.056C272.306 472.569 272.54 473.04 271.713 475.109C271.479 475.699 271.321 476.384 270.905 476.825C270.224 477.544 269.235 478.703 268.599 478.578C267.61 478.39 266.672 477.384 265.977 476.523C265.533 475.973 265.562 475.062 265.381 474.315Z" fill="#F2C370"/>
<path fill-rule="evenodd" clip-rule="evenodd" d="M438.412 433.084C440.214 428.305 444.262 425.646 449.034 426.48C452.359 427.064 455.256 428.829 456.919 431.703C458.387 434.248 459.582 437.06 460.252 439.894C462.204 448.158 464.02 456.46 465.509 464.811C466.241 468.922 465.527 472.957 462.415 476.33C457.76 481.38 450.828 481.153 446.822 475.68C446.413 475.121 445.997 474.569 445.418 473.792C443.871 478.268 441.329 481.428 436.729 482.819C431.541 484.392 428.399 481.699 425.948 478.123C424.657 480.147 423.72 482.099 422.342 483.69C417.936 488.781 410.81 488.524 406.992 483.08C405.579 481.07 404.347 478.756 403.768 476.407C402.059 469.468 400.585 462.463 399.277 455.443C398.526 451.432 397.684 447.3 397.918 443.28C398.357 435.755 406.226 430.484 413.644 435.82C414.914 436.731 416.1 437.754 417.331 438.734C419.933 429.323 428.447 425.473 437.678 435.301C437.936 434.521 438.146 433.793 438.412 433.084ZM442.994 446.631C444.056 452.262 444.868 457.95 446.272 463.498C447.162 467.012 448.66 470.462 450.402 473.677C451.876 476.392 453.783 476.733 456.716 475.507C459.522 474.334 461.452 472.223 461.445 469.199C461.437 465.397 461.362 461.515 460.579 457.817C459.11 450.903 457.173 444.081 455.295 437.258C454.653 434.925 453.387 432.939 451.164 431.494C446.122 428.219 442.62 431.879 441.796 435.94C441.671 436.561 441.722 437.213 441.695 437.847C441.578 437.872 442.446 443.725 442.994 446.631ZM422.786 449.862C423.803 455.282 424.533 460.777 425.936 466.102C426.953 469.943 428.733 473.625 430.443 477.256C431.435 479.362 433.522 479.6 435.707 479.026C438.726 478.234 441.267 475.492 441.256 472.423C441.242 468.974 441.244 465.44 440.517 462.094C438.899 454.636 436.911 447.252 434.895 439.883C434.319 437.779 432.986 436.047 430.977 434.725C425.921 431.405 422.443 435.18 421.599 439.173C421.469 439.79 421.526 440.442 421.497 441.08C421.384 441.1 422.242 446.955 422.786 449.862ZM420.715 465.857C419.021 458.557 417.203 451.276 415.081 444.088C414.528 442.212 412.998 440.274 411.359 439.105C406.806 435.867 401.97 438.265 401.862 443.844C401.798 447.119 402.403 450.437 402.977 453.686C404.031 459.67 405.038 465.685 406.554 471.564C407.441 474.994 409.153 478.251 410.746 481.466C411.686 483.357 413.565 483.686 415.639 483.21C419.281 482.37 421.424 479.444 421.653 473.462C421.468 471.879 421.399 468.801 420.715 465.857Z" fill="black"/>
<path fill-rule="evenodd" clip-rule="evenodd" d="M441.695 437.848C441.724 437.214 441.671 436.561 441.796 435.941C442.619 431.881 446.122 428.22 451.164 431.496C453.387 432.94 454.653 434.926 455.295 437.259C457.173 444.083 459.11 450.905 460.579 457.818C461.362 461.516 461.437 465.398 461.445 469.2C461.453 472.223 459.522 474.335 456.716 475.508C453.784 476.734 451.876 476.394 450.402 473.678C448.66 470.463 447.162 467.014 446.272 463.499C444.868 457.952 444.056 452.264 442.994 446.633C442.446 443.725 441.578 437.872 441.695 437.848Z" fill="#F9E280"/>
<path fill-rule="evenodd" clip-rule="evenodd" d="M421.498 441.08C421.528 440.443 421.471 439.79 421.6 439.173C422.444 435.179 425.923 431.405 430.978 434.725C432.987 436.046 434.32 437.779 434.897 439.883C436.912 447.252 438.899 454.638 440.519 462.094C441.245 465.44 441.244 468.973 441.257 472.423C441.268 475.492 438.728 478.235 435.709 479.026C433.523 479.6 431.437 479.362 430.444 477.256C428.733 473.625 426.954 469.944 425.937 466.102C424.535 460.778 423.804 455.282 422.787 449.862C422.242 446.955 421.384 441.1 421.498 441.08Z" fill="#F9E280"/>
<path fill-rule="evenodd" clip-rule="evenodd" d="M415.638 483.21C413.565 483.685 411.686 483.355 410.744 481.466C409.152 478.251 407.44 474.994 406.553 471.564C405.036 465.685 404.031 459.67 402.976 453.686C402.402 450.437 401.797 447.119 401.861 443.845C401.968 438.265 406.806 435.867 411.358 439.105C412.997 440.274 414.527 442.212 415.08 444.088C417.202 451.277 419.019 458.558 420.713 465.857C421.397 468.801 421.468 471.879 421.65 473.461C421.423 479.444 419.28 482.37 415.638 483.21Z" fill="#F9E280"/>
<path fill-rule="evenodd" clip-rule="evenodd" d="M455.033 464.274C453.459 464.516 451.259 463.943 450.867 466.145C450.543 467.947 452.937 471.059 454.19 471.137C456.08 471.258 457.373 469.33 457.545 466.489C457.658 464.607 456.733 464.118 455.033 464.274Z" fill="#F2C370"/>
<path fill-rule="evenodd" clip-rule="evenodd" d="M430.645 469.376C429.904 470.7 432.691 474.426 433.958 474.49C435.839 474.578 437.126 472.635 437.285 469.809C437.39 467.899 436.404 467.482 434.736 467.666C434.648 467.482 431.264 468.271 430.645 469.376Z" fill="#F2C370"/>
<path fill-rule="evenodd" clip-rule="evenodd" d="M417.895 474.315C418.107 472.583 417.441 471.72 415.593 471.874C414.804 471.94 413.989 471.887 413.226 472.056C410.969 472.569 410.736 473.04 411.563 475.109C411.797 475.699 411.953 476.384 412.371 476.825C413.051 477.544 414.04 478.703 414.676 478.578C415.665 478.39 416.603 477.384 417.298 476.523C417.743 475.973 417.714 475.062 417.895 474.315Z" fill="#F2C370"/>
<path d="M271.301 198.573V171.376C271.301 169.946 272.437 168.839 273.905 168.839H273.953C273.953 168.839 273.953 168.839 274.048 168.839H289.39C290.764 168.839 291.995 169.946 291.995 171.376C291.995 172.804 290.764 173.958 289.39 173.958H276.557V182.394H287.591C289.011 182.394 290.195 183.592 290.195 184.93C290.195 186.358 289.011 187.511 287.591 187.511H276.557V195.994H289.39C290.764 195.994 291.995 197.148 291.995 198.576C291.995 199.958 290.764 201.112 289.39 201.112H274.048C273.953 201.112 273.953 201.065 273.953 201.065L273.905 201.112C272.438 201.109 271.301 199.957 271.301 198.573Z" fill="black"/>
<path d="M319.785 197.283C320.26 198.62 319.501 200.048 318.127 200.51C317.938 200.557 317.56 200.648 317.085 200.648C317.085 200.648 317.085 200.648 317.038 200.648C316.564 200.648 315.853 200.556 315.191 200.141C314.576 199.772 314.055 199.173 313.676 198.527C313.013 197.19 312.682 195.531 312.682 192.995C312.634 192.119 312.445 191.521 312.113 191.012C311.829 190.505 311.262 190.044 310.693 189.676C309.699 189.031 308.468 188.662 308.041 188.569H302.454V198.573C302.454 199.956 301.27 201.109 299.802 201.109C298.335 201.109 297.198 199.956 297.198 198.573V171.376C297.198 169.946 298.335 168.839 299.802 168.839C299.802 168.839 299.802 168.839 299.85 168.839H308.278C313.914 168.839 318.413 173.264 318.413 178.751C318.413 181.793 316.991 184.466 314.719 186.311C315.334 186.771 315.902 187.325 316.375 188.016C317.323 189.353 317.938 191.058 317.938 192.995C317.89 194.378 318.033 195.254 318.127 195.715C318.886 195.947 319.502 196.5 319.785 197.283ZM313.156 178.752C313.156 176.077 310.978 173.958 308.278 173.958H302.454V183.453H308.278C310.978 183.453 313.156 181.332 313.156 178.752Z" fill="black"/>
<path d="M347.97 197.283C348.443 198.62 347.685 200.048 346.312 200.51C346.121 200.557 345.743 200.648 345.269 200.648C345.269 200.648 345.269 200.648 345.222 200.648C344.748 200.648 344.038 200.556 343.375 200.141C342.761 199.772 342.239 199.173 341.86 198.527C341.198 197.19 340.865 195.531 340.865 192.995C340.819 192.119 340.628 191.521 340.298 191.012C340.015 190.505 339.446 190.044 338.878 189.676C337.884 189.031 336.653 188.662 336.226 188.569H330.639V198.573C330.639 199.956 329.455 201.109 327.987 201.109C326.518 201.109 325.383 199.956 325.383 198.573V171.376C325.383 169.946 326.518 168.839 327.987 168.839C327.987 168.839 327.987 168.839 328.035 168.839H336.463C342.098 168.839 346.597 173.264 346.597 178.751C346.597 181.793 345.176 184.466 342.904 186.311C343.52 186.771 344.087 187.325 344.561 188.016C345.508 189.353 346.123 191.058 346.123 192.995C346.076 194.378 346.218 195.254 346.313 195.715C347.071 195.947 347.685 196.5 347.97 197.283ZM341.341 178.752C341.341 176.077 339.161 173.958 336.463 173.958H330.639V183.453H336.463C339.162 183.453 341.341 181.332 341.341 178.752Z" fill="black"/>
<path d="M378.858 172.851C381.795 175.892 383.641 179.949 383.641 184.514C383.641 189.078 381.795 193.181 378.858 196.177C376.063 199.173 371.897 201.11 367.541 201.11C362.996 201.11 358.83 199.175 355.939 196.177C353.006 193.181 351.254 189.078 351.254 184.514C351.254 179.95 353.006 175.893 355.939 172.851C358.83 169.808 362.996 167.918 367.541 167.918C371.897 167.918 376.064 169.808 378.858 172.851ZM378.243 184.514C378.243 181.379 376.966 178.475 375.024 176.447C373.034 174.373 370.382 173.174 367.541 173.174C364.511 173.174 361.861 174.372 359.869 176.447C357.88 178.475 356.652 181.38 356.652 184.514C356.652 187.649 357.88 190.554 359.869 192.535C361.861 194.609 364.511 195.854 367.541 195.854C370.382 195.854 373.034 194.609 375.024 192.535C376.966 190.553 378.243 187.649 378.243 184.514Z" fill="black"/>
<path d="M410.666 197.283C411.14 198.62 410.383 200.048 409.008 200.51C408.819 200.557 408.441 200.648 407.966 200.648C407.966 200.648 407.966 200.648 407.918 200.648C407.445 200.648 406.735 200.556 406.073 200.141C405.458 199.772 404.936 199.173 404.558 198.527C403.895 197.19 403.564 195.531 403.564 192.995C403.517 192.119 403.327 191.521 402.995 191.012C402.711 190.505 402.144 190.044 401.575 189.676C400.58 189.031 399.35 188.662 398.925 188.569H393.336V198.573C393.336 199.956 392.153 201.109 390.686 201.109C389.217 201.109 388.081 199.956 388.081 198.573V171.376C388.081 169.946 389.217 168.839 390.686 168.839C390.686 168.839 390.686 168.839 390.732 168.839H399.161C404.797 168.839 409.295 173.264 409.295 178.751C409.295 181.793 407.873 184.466 405.601 186.311C406.216 186.771 406.784 187.325 407.257 188.016C408.205 189.353 408.82 191.058 408.82 192.995C408.772 194.378 408.914 195.254 409.009 195.715C409.767 195.947 410.383 196.5 410.666 197.283ZM404.037 178.752C404.037 176.077 401.857 173.958 399.16 173.958H393.335V183.453H399.16C401.857 183.453 404.037 181.332 404.037 178.752Z" fill="black"/>
<path d="M326.43 152.019C326.43 153.449 325.245 154.554 323.778 154.554H323.305V158.058C323.305 159.486 322.169 160.593 320.7 160.593C319.233 160.593 318.096 159.486 318.096 158.058V154.554H303.275H303.227H303.179C302.611 154.554 302.042 154.417 301.569 154.002C300.385 153.126 300.243 151.56 301.143 150.451L318.664 129.246C318.712 129.246 318.712 129.2 318.758 129.154C318.806 129.107 318.853 129.061 318.901 128.969C319.042 128.923 319.09 128.877 319.138 128.83C319.185 128.784 319.279 128.738 319.328 128.693C319.422 128.646 319.469 128.6 319.612 128.6C319.66 128.507 319.707 128.462 319.803 128.462C319.849 128.416 319.944 128.416 320.087 128.37C320.134 128.37 320.228 128.37 320.276 128.323C320.371 128.323 320.513 128.323 320.608 128.323C320.608 128.323 320.655 128.323 320.703 128.323C320.751 128.323 320.751 128.323 320.798 128.323C320.893 128.323 321.035 128.323 321.082 128.323C321.178 128.37 321.225 128.37 321.319 128.37C321.365 128.416 321.508 128.416 321.602 128.462C321.649 128.462 321.745 128.509 321.791 128.509C321.886 128.601 321.981 128.648 322.028 128.694C322.121 128.739 322.169 128.785 322.264 128.832C322.264 128.832 322.312 128.832 322.312 128.878C322.359 128.878 322.453 128.924 322.453 128.971C322.548 129.062 322.596 129.109 322.644 129.155C322.691 129.201 322.739 129.294 322.785 129.34C322.833 129.387 322.879 129.433 322.974 129.571C322.974 129.617 323.022 129.708 323.069 129.756C323.117 129.847 323.117 129.894 323.165 130.033C323.165 130.079 323.211 130.17 323.211 130.217C323.258 130.309 323.258 130.356 323.258 130.495C323.258 130.586 323.306 130.632 323.306 130.725C323.306 130.771 323.306 130.818 323.306 130.863V149.486H323.779C325.247 149.484 326.43 150.637 326.43 152.019ZM318.096 138.097L308.672 149.484H318.096V138.097Z" fill="black"/>
<path d="M329.858 144.459C329.906 140.217 330.994 136.392 333.078 133.442C335.066 130.491 338.145 128.323 341.885 128.323C345.532 128.323 348.656 130.491 350.645 133.442C352.682 136.392 353.818 140.218 353.818 144.459C353.818 148.653 352.682 152.526 350.645 155.477C348.655 158.381 345.531 160.595 341.885 160.595C338.145 160.595 335.066 158.382 333.078 155.477C330.995 152.527 329.906 148.653 329.858 144.459ZM348.564 144.459C348.564 141.14 347.617 138.236 346.29 136.253C344.916 134.317 343.355 133.394 341.886 133.442C340.419 133.396 338.809 134.317 337.389 136.253C336.063 138.236 335.116 141.14 335.116 144.459C335.116 147.732 336.064 150.683 337.389 152.619C338.809 154.601 340.419 155.477 341.886 155.477C343.355 155.477 344.918 154.601 346.29 152.619C347.617 150.683 348.564 147.733 348.564 144.459Z" fill="black"/>
<path d="M381.929 152.019C381.929 153.449 380.746 154.554 379.277 154.554H378.803V158.058C378.803 159.486 377.668 160.593 376.199 160.593C374.73 160.593 373.595 159.486 373.595 158.058V154.554H358.773H358.726H358.679C358.111 154.554 357.544 154.417 357.069 154.002C355.885 153.126 355.742 151.56 356.644 150.451L374.166 129.246C374.212 129.246 374.212 129.2 374.258 129.154C374.305 129.107 374.352 129.061 374.401 128.969C374.541 128.923 374.59 128.877 374.638 128.83C374.684 128.784 374.779 128.738 374.828 128.693C374.921 128.646 374.968 128.6 375.111 128.6C375.157 128.507 375.205 128.462 375.301 128.462C375.348 128.416 375.443 128.416 375.584 128.37C375.632 128.37 375.727 128.37 375.775 128.323C375.869 128.323 376.011 128.323 376.105 128.323C376.105 128.323 376.154 128.323 376.2 128.323C376.247 128.323 376.247 128.323 376.294 128.323C376.389 128.323 376.531 128.323 376.58 128.323C376.672 128.37 376.721 128.37 376.816 128.37C376.863 128.416 377.007 128.416 377.099 128.462C377.147 128.462 377.242 128.509 377.29 128.509C377.384 128.601 377.48 128.648 377.526 128.694C377.62 128.739 377.669 128.785 377.763 128.832C377.763 128.832 377.811 128.832 377.811 128.878C377.86 128.878 377.953 128.924 377.953 128.971C378.047 129.062 378.096 129.109 378.144 129.155C378.19 129.201 378.238 129.294 378.285 129.34C378.333 129.387 378.379 129.433 378.474 129.571C378.474 129.617 378.523 129.708 378.569 129.756C378.616 129.847 378.616 129.894 378.663 130.033C378.663 130.079 378.711 130.17 378.711 130.217C378.759 130.309 378.759 130.356 378.759 130.495C378.759 130.586 378.805 130.632 378.805 130.725C378.805 130.771 378.805 130.818 378.805 130.863V149.486H379.278C380.746 149.484 381.929 150.637 381.929 152.019ZM373.595 138.097L364.171 149.484H373.595V138.097Z" fill="black"/>
<path d="M203.261 524.784C202.401 524.784 201.624 524.934 200.93 525.236C200.236 525.523 199.647 525.953 199.164 526.526C198.681 527.085 198.312 527.771 198.055 528.586C197.799 529.386 197.67 530.291 197.67 531.302C197.67 532.63 197.874 533.785 198.282 534.766C198.704 535.747 199.323 536.501 200.138 537.029C200.968 537.557 202.001 537.821 203.239 537.821C203.948 537.821 204.619 537.761 205.253 537.64C205.887 537.52 206.506 537.369 207.109 537.188V538.953C206.506 539.18 205.879 539.346 205.231 539.451C204.597 539.557 203.835 539.61 202.944 539.61C201.3 539.61 199.926 539.27 198.825 538.591C197.723 537.912 196.893 536.946 196.335 535.694C195.792 534.441 195.52 532.97 195.52 531.28C195.52 530.058 195.686 528.941 196.018 527.93C196.365 526.919 196.863 526.044 197.512 525.304C198.176 524.565 198.991 523.999 199.957 523.606C200.922 523.199 202.031 522.995 203.284 522.995C204.114 522.995 204.914 523.078 205.683 523.244C206.453 523.41 207.139 523.644 207.743 523.946L206.928 525.666C206.43 525.44 205.872 525.236 205.253 525.055C204.65 524.874 203.986 524.784 203.261 524.784ZM218.74 528.926H214.779V539.383H212.81V528.926H208.894V527.251H218.74V528.926ZM226.902 527.024C228.396 527.024 229.596 527.545 230.501 528.586C231.422 529.627 231.882 531.197 231.882 533.294C231.882 534.668 231.671 535.83 231.248 536.78C230.841 537.716 230.26 538.425 229.505 538.908C228.766 539.376 227.891 539.61 226.879 539.61C226.261 539.61 225.71 539.527 225.227 539.361C224.744 539.195 224.329 538.983 223.982 538.727C223.65 538.455 223.363 538.161 223.122 537.844H222.986C223.016 538.101 223.047 538.425 223.077 538.817C223.107 539.21 223.122 539.549 223.122 539.836V544.816H221.13V527.251H222.76L223.031 528.903H223.122C223.363 528.556 223.65 528.239 223.982 527.952C224.329 527.666 224.737 527.439 225.204 527.273C225.687 527.107 226.253 527.024 226.902 527.024ZM226.54 528.699C225.725 528.699 225.069 528.858 224.571 529.175C224.073 529.477 223.711 529.937 223.484 530.556C223.258 531.174 223.137 531.959 223.122 532.91V533.294C223.122 534.29 223.228 535.135 223.439 535.83C223.65 536.524 224.005 537.052 224.503 537.414C225.016 537.776 225.71 537.957 226.585 537.957C227.325 537.957 227.928 537.754 228.396 537.346C228.879 536.939 229.234 536.388 229.46 535.694C229.701 534.985 229.822 534.177 229.822 533.272C229.822 531.883 229.55 530.774 229.007 529.944C228.479 529.114 227.657 528.699 226.54 528.699ZM239.651 527.047C241.13 527.047 242.224 527.372 242.933 528.02C243.642 528.669 243.997 529.703 243.997 531.121V539.383H242.548L242.164 537.663H242.073C241.726 538.101 241.364 538.47 240.987 538.772C240.624 539.059 240.202 539.27 239.719 539.406C239.251 539.542 238.678 539.61 237.999 539.61C237.274 539.61 236.618 539.481 236.029 539.225C235.456 538.968 235.003 538.576 234.671 538.048C234.339 537.505 234.173 536.826 234.173 536.011C234.173 534.803 234.649 533.875 235.599 533.226C236.55 532.563 238.014 532.2 239.991 532.14L242.05 532.072V531.348C242.05 530.337 241.832 529.635 241.394 529.243C240.956 528.85 240.338 528.654 239.538 528.654C238.904 528.654 238.301 528.752 237.727 528.948C237.154 529.13 236.618 529.341 236.12 529.582L235.509 528.088C236.037 527.802 236.663 527.56 237.388 527.364C238.112 527.153 238.866 527.047 239.651 527.047ZM240.24 533.521C238.731 533.581 237.682 533.823 237.093 534.245C236.52 534.668 236.233 535.264 236.233 536.033C236.233 536.712 236.437 537.21 236.844 537.527C237.267 537.844 237.803 538.003 238.451 538.003C239.478 538.003 240.33 537.723 241.009 537.165C241.688 536.592 242.028 535.716 242.028 534.539V533.453L240.24 533.521ZM249.736 527.251V532.298H256.323V527.251H258.315V539.383H256.323V533.973H249.736V539.383H247.744V527.251H249.736ZM264.035 534.653C264.035 534.788 264.028 534.985 264.013 535.241C264.013 535.482 264.005 535.747 263.99 536.033C263.975 536.305 263.96 536.569 263.945 536.826C263.93 537.067 263.915 537.263 263.9 537.414L270.396 527.251H272.84V539.383H270.984V532.231C270.984 531.989 270.984 531.672 270.984 531.28C270.999 530.888 271.015 530.503 271.03 530.125C271.045 529.733 271.06 529.439 271.075 529.243L264.624 539.383H262.157V527.251H264.035V534.653ZM288.676 543.593H286.729V539.383H276.702V527.251H278.693V537.708H284.963V527.251H286.955V537.731H288.676V543.593ZM295.598 527.047C297.077 527.047 298.171 527.372 298.88 528.02C299.59 528.669 299.944 529.703 299.944 531.121V539.383H298.496L298.111 537.663H298.02C297.673 538.101 297.311 538.47 296.934 538.772C296.572 539.059 296.149 539.27 295.666 539.406C295.198 539.542 294.625 539.61 293.946 539.61C293.222 539.61 292.565 539.481 291.977 539.225C291.403 538.968 290.951 538.576 290.619 538.048C290.287 537.505 290.121 536.826 290.121 536.011C290.121 534.803 290.596 533.875 291.547 533.226C292.497 532.563 293.961 532.2 295.938 532.14L297.998 532.072V531.348C297.998 530.337 297.779 529.635 297.341 529.243C296.904 528.85 296.285 528.654 295.485 528.654C294.851 528.654 294.248 528.752 293.674 528.948C293.101 529.13 292.565 529.341 292.067 529.582L291.456 528.088C291.984 527.802 292.61 527.56 293.335 527.364C294.059 527.153 294.814 527.047 295.598 527.047ZM296.187 533.521C294.678 533.581 293.629 533.823 293.041 534.245C292.467 534.668 292.18 535.264 292.18 536.033C292.18 536.712 292.384 537.21 292.792 537.527C293.214 537.844 293.75 538.003 294.399 538.003C295.425 538.003 296.277 537.723 296.956 537.165C297.635 536.592 297.975 535.716 297.975 534.539V533.453L296.187 533.521ZM311.917 527.251V532.298H318.504V527.251H320.496V539.383H318.504V533.973H311.917V539.383H309.925V527.251H311.917ZM329.023 527.024C330.064 527.024 330.954 527.251 331.694 527.703C332.448 528.156 333.022 528.798 333.414 529.627C333.822 530.442 334.025 531.401 334.025 532.502V533.702H325.718C325.748 535.075 326.095 536.124 326.759 536.848C327.438 537.557 328.382 537.912 329.589 537.912C330.358 537.912 331.037 537.844 331.626 537.708C332.23 537.557 332.848 537.346 333.482 537.075V538.817C332.863 539.089 332.252 539.285 331.649 539.406C331.045 539.542 330.328 539.61 329.498 539.61C328.351 539.61 327.333 539.376 326.442 538.908C325.567 538.44 324.881 537.746 324.383 536.826C323.9 535.89 323.658 534.751 323.658 533.408C323.658 532.08 323.877 530.94 324.315 529.99C324.767 529.039 325.394 528.307 326.193 527.794C327.008 527.281 327.951 527.024 329.023 527.024ZM329 528.654C328.05 528.654 327.295 528.964 326.737 529.582C326.193 530.186 325.869 531.031 325.763 532.117H331.943C331.943 531.423 331.837 530.82 331.626 530.307C331.415 529.793 331.09 529.394 330.653 529.107C330.23 528.805 329.679 528.654 329 528.654ZM345.339 527.251V532.298H351.926V527.251H353.918V539.383H351.926V533.973H345.339V539.383H343.347V527.251H345.339ZM362.355 527.047C363.834 527.047 364.928 527.372 365.637 528.02C366.346 528.669 366.701 529.703 366.701 531.121V539.383H365.252L364.867 537.663H364.777C364.43 538.101 364.067 538.47 363.69 538.772C363.328 539.059 362.906 539.27 362.423 539.406C361.955 539.542 361.381 539.61 360.702 539.61C359.978 539.61 359.322 539.481 358.733 539.225C358.16 538.968 357.707 538.576 357.375 538.048C357.043 537.505 356.877 536.826 356.877 536.011C356.877 534.803 357.352 533.875 358.303 533.226C359.254 532.563 360.717 532.2 362.694 532.14L364.754 532.072V531.348C364.754 530.337 364.535 529.635 364.098 529.243C363.66 528.85 363.041 528.654 362.242 528.654C361.608 528.654 361.004 528.752 360.431 528.948C359.857 529.13 359.322 529.341 358.824 529.582L358.212 528.088C358.741 527.802 359.367 527.56 360.091 527.364C360.816 527.153 361.57 527.047 362.355 527.047ZM362.943 533.521C361.434 533.581 360.385 533.823 359.797 534.245C359.224 534.668 358.937 535.264 358.937 536.033C358.937 536.712 359.141 537.21 359.548 537.527C359.97 537.844 360.506 538.003 361.155 538.003C362.181 538.003 363.034 537.723 363.713 537.165C364.392 536.592 364.731 535.716 364.731 534.539V533.453L362.943 533.521ZM380.272 522.226C380.211 522.98 380.023 523.614 379.706 524.127C379.404 524.64 378.951 525.025 378.348 525.282C377.744 525.538 376.959 525.666 375.994 525.666C375.013 525.666 374.22 525.538 373.617 525.282C373.028 525.025 372.598 524.648 372.327 524.15C372.055 523.637 371.889 522.995 371.829 522.226H373.685C373.76 523.041 373.971 523.591 374.319 523.878C374.681 524.15 375.254 524.286 376.039 524.286C376.733 524.286 377.276 524.142 377.669 523.855C378.076 523.554 378.317 523.01 378.393 522.226H380.272ZM372.327 534.653C372.327 534.788 372.319 534.985 372.304 535.241C372.304 535.482 372.296 535.747 372.281 536.033C372.266 536.305 372.251 536.569 372.236 536.826C372.221 537.067 372.206 537.263 372.191 537.414L378.687 527.251H381.132V539.383H379.276V532.231C379.276 531.989 379.276 531.672 379.276 531.28C379.291 530.888 379.306 530.503 379.321 530.125C379.336 529.733 379.351 529.439 379.366 529.243L372.915 539.383H370.448V527.251H372.327V534.653ZM394.002 527.251V537.708H395.767V543.593H393.843V539.383H385.4V543.593H383.499V537.708H384.472C385.166 536.743 385.74 535.694 386.193 534.562C386.66 533.415 387.007 532.223 387.234 530.986C387.475 529.733 387.603 528.488 387.619 527.251H394.002ZM389.384 528.813C389.324 529.839 389.165 530.903 388.909 532.004C388.652 533.091 388.32 534.132 387.913 535.128C387.52 536.124 387.06 536.984 386.532 537.708H392.078V528.813H389.384ZM402.831 527.024C403.872 527.024 404.762 527.251 405.502 527.703C406.256 528.156 406.83 528.798 407.222 529.627C407.629 530.442 407.833 531.401 407.833 532.502V533.702H399.526C399.556 535.075 399.903 536.124 400.567 536.848C401.246 537.557 402.189 537.912 403.397 537.912C404.166 537.912 404.845 537.844 405.434 537.708C406.037 537.557 406.656 537.346 407.29 537.075V538.817C406.671 539.089 406.06 539.285 405.456 539.406C404.853 539.542 404.136 539.61 403.306 539.61C402.159 539.61 401.141 539.376 400.25 538.908C399.375 538.44 398.688 537.746 398.19 536.826C397.708 535.89 397.466 534.751 397.466 533.408C397.466 532.08 397.685 530.94 398.123 529.99C398.575 529.039 399.202 528.307 400.001 527.794C400.816 527.281 401.759 527.024 402.831 527.024ZM402.808 528.654C401.857 528.654 401.103 528.964 400.545 529.582C400.001 530.186 399.677 531.031 399.571 532.117H405.751C405.751 531.423 405.645 530.82 405.434 530.307C405.223 529.793 404.898 529.394 404.46 529.107C404.038 528.805 403.487 528.654 402.808 528.654ZM412.914 527.251V532.298H419.501V527.251H421.492V539.383H419.501V533.973H412.914V539.383H410.922V527.251H412.914ZM429.929 527.047C431.408 527.047 432.502 527.372 433.211 528.02C433.92 528.669 434.275 529.703 434.275 531.121V539.383H432.826L432.442 537.663H432.351C432.004 538.101 431.642 538.47 431.265 538.772C430.902 539.059 430.48 539.27 429.997 539.406C429.529 539.542 428.956 539.61 428.277 539.61C427.552 539.61 426.896 539.481 426.307 539.225C425.734 538.968 425.281 538.576 424.949 538.048C424.617 537.505 424.451 536.826 424.451 536.011C424.451 534.803 424.927 533.875 425.877 533.226C426.828 532.563 428.292 532.2 430.269 532.14L432.328 532.072V531.348C432.328 530.337 432.11 529.635 431.672 529.243C431.234 528.85 430.616 528.654 429.816 528.654C429.182 528.654 428.579 528.752 428.005 528.948C427.432 529.13 426.896 529.341 426.398 529.582L425.787 528.088C426.315 527.802 426.941 527.56 427.666 527.364C428.39 527.153 429.144 527.047 429.929 527.047ZM430.518 533.521C429.009 533.581 427.96 533.823 427.371 534.245C426.798 534.668 426.511 535.264 426.511 536.033C426.511 536.712 426.715 537.21 427.122 537.527C427.545 537.844 428.081 538.003 428.729 538.003C429.756 538.003 430.608 537.723 431.287 537.165C431.966 536.592 432.306 535.716 432.306 534.539V533.453L430.518 533.521Z" fill="black"/>
</g>
<defs>
<clipPath id="clip0_59_28">
<rect width="680" height="662" fill="white"/>
</clipPath>
</defs>
</svg>
